<svg width="20" height="20" viewBox="0 0 20 20" fill="none" xmlns="http://www.w3.org/2000/svg">
<path d="M11.6828 1.42792L13.5172 4.74516C13.7685 5.20049 14.3993 5.63305 14.918 5.69152L18.0058 6.07965C19.9828 6.32388 20.4926 7.72693 19.1472 9.19655L16.8549 11.6862C16.4722 12.1035 16.2736 12.8994 16.4274 13.4457L17.2305 16.3768C17.8623 18.691 16.6609 19.6502 14.5497 18.5135L11.6005 16.9253C11.0634 16.635 10.2102 16.6773 9.70557 17.0032L6.89805 18.8205C4.88825 20.1194 3.60935 19.2643 4.05035 16.9081L4.61508 13.9262C4.72051 13.3689 4.46773 12.591 4.05051 12.2084L1.54716 9.91246C0.0862077 8.56201 0.479195 7.12269 2.42598 6.71462L5.46576 6.07967C5.97877 5.96823 6.57329 5.49797 6.78202 5.0195L8.33938 1.55692C9.19064 -0.308646 10.6925 -0.367429 11.6828 1.42792Z" fill="black"/>
</svg>
